<svg version="1.2" xmlns="http://www.w3.org/2000/svg" viewBox="0 0 20 20" width="20" height="20">
	<title>web_light_sq_na-svg</title>
	<style>
		.s0 { fill: #4285f4 } 
		.s1 { fill: #34a853 } 
		.s2 { fill: #fbbc04 } 
		.s3 { fill: #e94235 } 
	</style>
	<g id="Layer">
		<path id="Layer" fill-rule="evenodd" class="s0" d="m19.6 10.2q0-1-0.2-2h-9.4v3.9h5.4c-0.3 1.2-1 2.3-2 3v2.5h3.2c1.9-1.8 3-4.3 3-7.4z"/>
		<path id="Layer" fill-rule="evenodd" class="s1" d="m10 20c2.7 0 5-0.9 6.6-2.4l-3.2-2.5c-0.9 0.6-2.1 0.9-3.4 0.9-2.6 0-4.8-1.7-5.6-4.1h-3.3v2.6c1.6 3.3 5 5.5 8.9 5.5z"/>
		<path id="Layer" fill-rule="evenodd" class="s2" d="m4.4 11.9q-0.3-0.9-0.3-1.9 0-1 0.3-1.9v-2.6h-3.3c-0.7 1.4-1.1 2.9-1.1 4.5 0 1.6 0.4 3.1 1.1 4.5z"/>
		<path id="Layer" fill-rule="evenodd" class="s3" d="m10 4c1.5 0 2.8 0.5 3.8 1.5l2.9-2.9c-1.7-1.6-4-2.6-6.7-2.6-3.9 0-7.3 2.2-8.9 5.5l3.3 2.6c0.8-2.4 3-4.1 5.6-4.1z"/>
	</g>
</svg>